<?xml version="1.0" standalone="no"?>
<!DOCTYPE svg PUBLIC "-//W3C//DTD SVG 20010904//EN"
 "http://www.w3.org/TR/2001/REC-SVG-20010904/DTD/svg10.dtd">
<svg version="1.1" id="Layer_1" xmlns="http://www.w3.org/2000/svg" xmlns:xlink="http://www.w3.org/1999/xlink" x="0px" y="0px" viewBox="0 0 182 119" style="enable-background:new 0 0 182 119;" xml:space="preserve" fill="#55554f">
                              <path class="st0" d="M68.96,93.08c-3.24,8.87-8.28,11.63-18.75,9.81c-17.21-2.99-29.57-12.26-34.1-29.54
                      c-4.57-17.41-1.1-33.21,13.05-45.37c14.98-12.87,40.86-12.35,53.97,0.76c1.74,1.74,3.21,3.76,5.07,5.96
                        c-2.3,1.71-4.27,3.19-6.4,4.78c-7.45-6.89-15.36-12.49-25.99-12.68c-6.83-0.12-12.85,1.9-18.33,5.75
                          C25.8,40.74,20.5,56.86,25.14,71.63C32.1,93.8,48.96,96.77,68.96,93.08z" />
                              <path class="st0"
                                d="M67.72,101.22c6.29-8.59,12.38-16.83,18.39-25.14c11.42-15.79,22.77-31.63,34.2-47.42
                      c10.04-13.88,33.67-12.23,40.66,3.23c-2.07,1.39-4.21,2.82-6.54,4.39c-1.17-1.31-2.15-2.47-3.2-3.56
                        c-7.4-7.73-17.75-7.16-24.02,1.44c-12.71,17.44-25.33,34.94-38,52.41C83.28,94.77,76.13,99.73,67.72,101.22z" />
                              <path class="st0" d="M112.88,86.7c2.4-1.32,4.66-2.57,7.1-3.91c1.06,1.44,1.94,2.67,2.85,3.87c5.93,7.8,15.47,10.85,24.49,7.83
                      c10.85-3.64,13.56-15.23,5.07-22.95c-3.12-2.83-7.15-4.68-10.81-6.9c-5.57-3.37-11.33-6.46-16.74-10.06
                      c-5.28-3.51-5.39-5.56-1.49-10.4c0.95-1.18,1.86-2.37,3.28-4.18c1.38,7.54,6.9,10.37,12.55,13.16c5.22,2.58,10.44,5.2,15.49,8.09
                        c8.65,4.95,13.23,14.42,11.66,23.51c-1.73,10.07-8.15,16.32-18.89,18.4c-13.76,2.67-27.13-2.89-33.44-13.94
                        C113.58,88.53,113.33,87.75,112.88,86.7z" />
</svg>