<?xml version="1.0" standalone="no"?>
<!DOCTYPE svg PUBLIC "-//W3C//DTD SVG 20010904//EN"
 "http://www.w3.org/TR/2001/REC-SVG-20010904/DTD/svg10.dtd">
<svg version="1.0" xmlns="http://www.w3.org/2000/svg"
 width="1855.000000pt" height="710.000000pt" viewBox="0 0 1855.000000 710.000000"
 preserveAspectRatio="xMidYMid meet">

<g transform="translate(0.000000,710.000000) scale(0.100000,-0.100000)"
fill="#000000" stroke="none">
<path d="M14980 6970 c-11 -7 -17 -38 -21 -127 -10 -192 -63 -315 -190 -442
-77 -77 -142 -118 -271 -172 -51 -21 -125 -55 -164 -74 l-71 -35 -134 10
c-220 16 -326 43 -507 131 -165 80 -319 191 -517 373 -65 60 -88 67 -105 35
-10 -18 -5 -31 33 -87 62 -93 75 -122 98 -209 45 -179 1 -350 -132 -514 -32
-39 -88 -122 -125 -184 l-65 -112 -82 -28 c-45 -15 -136 -51 -202 -80 -169
-75 -244 -90 -440 -89 -181 0 -278 15 -468 71 -167 49 -168 49 -183 29 -22
-31 -5 -53 56 -75 168 -61 308 -218 355 -397 20 -77 19 -234 -2 -354 -9 -56
-16 -153 -17 -235 0 -117 3 -153 22 -220 60 -210 180 -373 352 -476 81 -49
161 -64 345 -64 207 1 276 17 596 139 179 67 391 56 655 -35 198 -68 345 -151
459 -258 57 -53 57 -52 -9 16 -128 133 -399 271 -646 329 -100 23 -251 34
-331 22 -39 -5 -147 -36 -240 -68 -200 -70 -302 -90 -464 -90 -242 0 -314 26
-450 164 -103 104 -162 203 -196 333 -28 102 -29 280 -3 413 12 63 18 141 18
230 0 120 -3 144 -27 216 -25 77 -84 181 -131 233 l-21 24 40 -7 c224 -35 410
-33 568 8 55 14 147 47 205 74 113 52 180 77 188 69 3 -2 -6 -39 -20 -80 -56
-171 -54 -314 4 -465 58 -149 163 -257 333 -342 109 -55 230 -95 502 -165 99
-26 209 -59 245 -72 112 -44 218 -113 317 -208 l94 -90 24 -160 c38 -256 48
-315 53 -311 2 2 -8 95 -23 206 -14 111 -25 206 -23 211 5 15 87 -114 141
-221 27 -52 46 -84 42 -70 -14 50 -95 208 -143 280 -34 52 -52 90 -56 123 -4
26 -5 47 -2 47 3 0 23 -33 46 -72 22 -40 40 -68 40 -63 0 6 -20 46 -46 90 -43
76 -46 86 -56 194 -11 128 -8 535 6 548 10 10 226 -213 276 -287 44 -65 110
-193 110 -214 0 -9 -25 -77 -55 -152 -30 -76 -53 -139 -52 -141 2 -2 30 56 63
129 l58 132 18 -57 c9 -32 24 -101 32 -155 l14 -97 -69 -179 c-38 -98 -68
-180 -66 -182 2 -2 32 65 68 149 l64 152 5 -125 5 -125 8 79 c4 43 7 114 7
157 0 56 4 82 15 93 8 8 15 21 15 28 0 36 250 528 346 679 32 51 33 50 67 -91
37 -150 49 -249 45 -379 l-3 -114 -134 -98 c-181 -132 -185 -141 -12 -26 80
53 146 95 147 94 5 -5 -16 -111 -37 -187 l-22 -81 -168 -126 c-93 -68 -169
-127 -169 -129 0 -3 70 43 155 101 85 59 155 104 155 100 0 -29 -118 -226
-189 -315 -19 -25 -27 -39 -18 -31 29 23 135 170 175 241 20 36 40 68 45 71 5
3 8 9 8 13 -3 19 0 27 8 21 5 -3 13 0 17 6 4 8 3 9 -4 5 -18 -11 -14 10 5 25
14 12 16 12 9 -1 -4 -8 1 -5 11 6 35 41 659 441 670 430 8 -8 -26 -140 -59
-231 -34 -93 -147 -316 -162 -320 -6 -2 -89 -13 -184 -25 -271 -35 -197 -38
117 -4 l54 6 -33 -45 c-48 -67 -168 -186 -193 -191 -12 -3 -93 -15 -180 -27
-86 -12 -155 -24 -153 -27 3 -2 71 3 151 13 81 9 149 14 152 11 10 -10 -97
-79 -212 -136 -126 -63 -139 -73 -53 -39 86 33 188 88 264 141 57 40 77 49
105 46 l34 -3 -61 -40 c-98 -64 -103 -68 -39 -34 33 17 75 43 94 57 31 23 48
27 158 34 68 5 226 7 351 6 l226 -3 -104 -93 c-122 -109 -269 -210 -392 -270
l-87 -43 -38 20 c-46 23 -233 101 -242 101 -3 0 53 -29 124 -64 146 -71 146
-66 14 -103 l-57 -16 -94 41 c-119 52 -280 114 -285 109 -2 -2 18 -12 44 -22
27 -10 101 -43 166 -73 85 -40 115 -58 107 -66 -7 -7 -69 -11 -171 -11 -108 0
-147 -3 -122 -8 21 -5 110 -7 198 -4 l160 4 80 -40 c168 -84 441 -243 820
-481 132 -82 262 -158 289 -169 114 -43 247 -30 346 33 185 118 356 447 460
882 18 76 36 135 40 133 14 -8 121 -235 145 -305 52 -152 153 -246 335 -311
l75 -27 -35 -13 c-72 -25 -240 -117 -321 -175 -108 -77 -240 -209 -364 -364
-54 -69 -133 -168 -175 -220 -293 -369 -696 -643 -946 -643 -141 0 -190 57
-469 558 -233 418 -366 621 -585 893 -164 203 -223 265 -97 102 226 -293 371
-517 547 -845 62 -115 144 -268 182 -340 146 -270 246 -396 335 -423 116 -35
302 15 518 138 233 133 456 346 701 670 283 375 613 593 947 625 61 6 68 9 73
32 10 38 -13 49 -118 56 -278 19 -480 139 -533 317 -15 52 -86 200 -140 294
l-56 98 11 112 c24 235 64 383 150 562 70 145 173 293 289 416 56 59 101 112
101 117 0 14 -29 41 -43 41 -7 0 -29 -14 -49 -30 -72 -60 -143 -84 -251 -88
-202 -8 -401 68 -666 252 l-95 66 -54 142 c-98 263 -132 430 -132 664 0 199
18 291 97 496 16 44 16 49 1 64 -29 29 -55 8 -95 -74 -47 -97 -167 -222 -260
-270 -140 -73 -321 -91 -542 -52 -62 11 -146 20 -186 20 l-73 0 -174 146
c-138 116 -184 161 -226 222 -150 217 -247 457 -267 660 -5 55 -11 75 -25 82
-22 12 -21 12 -40 0z m121 -540 c31 -63 89 -163 128 -222 66 -98 85 -119 220
-230 84 -69 144 -126 137 -129 -6 -3 -32 -12 -58 -19 l-48 -12 -97 82 c-107
90 -164 165 -238 310 -52 103 -101 239 -110 306 -4 27 -8 58 -10 69 -3 11 1 7
8 -10 6 -16 37 -82 68 -145z m-180 -28 c-41 -135 -139 -248 -281 -321 l-75
-39 -89 23 c-49 14 -91 27 -94 29 -2 3 6 10 19 15 13 5 63 25 111 44 48 19
117 51 154 72 72 40 194 150 239 215 15 22 30 38 33 36 2 -3 -5 -36 -17 -74z
m-1627 -36 c255 -190 501 -287 788 -311 l77 -7 -46 -40 -47 -40 -66 6 c-173
16 -387 112 -580 261 -58 45 -224 195 -216 195 2 0 43 -29 90 -64z m1706 -18
c0 -20 93 -208 135 -274 68 -107 107 -152 192 -220 l83 -67 -51 -34 c-28 -18
-54 -33 -58 -33 -4 0 -23 16 -42 36 -80 83 -230 156 -451 219 -67 20 -127 37
-132 38 -5 2 15 17 45 34 30 17 75 49 101 72 50 45 144 177 154 217 6 25 24
33 24 12z m-1735 -184 c26 -99 17 -202 -27 -304 -12 -26 -126 -190 -153 -219
-5 -5 -169 -50 -172 -47 -6 5 111 183 144 219 88 98 143 219 164 356 13 92 19
91 44 -5z m295 -114 c117 -68 276 -126 397 -145 l42 -7 -37 -58 c-20 -31 -41
-65 -47 -74 -8 -13 -16 -15 -44 -6 -92 26 -170 23 -341 -15 -91 -20 -199 -45
-242 -56 -42 -10 -82 -19 -88 -19 -6 0 5 19 25 42 48 56 101 164 116 235 7 35
9 97 6 154 l-5 97 76 -55 c42 -30 106 -72 142 -93z m815 -37 l75 -16 -62 -34
-61 -35 -66 12 c-95 18 -98 21 -49 58 50 36 62 38 163 15z m378 -97 c92 -26
196 -57 230 -71 75 -31 178 -92 232 -138 l40 -35 -40 -43 c-22 -24 -50 -57
-61 -73 l-21 -29 -22 36 c-36 59 -138 145 -220 186 -75 38 -223 88 -391 132
l-85 23 70 32 c39 18 77 31 85 29 8 -2 91 -24 183 -49z m1938 -107 c-22 -237
19 -501 120 -769 23 -61 39 -114 36 -117 -4 -3 -30 3 -59 13 l-52 19 -34 95
c-106 297 -115 600 -25 838 9 23 18 41 20 38 2 -2 0 -55 -6 -117z m-2456 64
c11 -6 3 -20 -36 -58 -27 -27 -64 -71 -81 -98 -17 -26 -33 -46 -37 -45 -80 41
-101 54 -101 63 0 14 51 87 89 129 25 27 29 28 89 22 34 -3 69 -9 77 -13z
m325 -79 c252 -68 363 -118 448 -202 33 -31 66 -71 75 -89 16 -31 16 -35 -15
-125 -28 -81 -32 -107 -33 -207 l-2 -114 -49 -61 c-62 -77 -152 -228 -228
-384 l-60 -121 -42 87 c-53 112 -72 136 -243 320 l-143 153 1 108 c3 201 -30
324 -121 453 -10 13 -9 23 2 45 19 37 174 193 191 193 8 0 107 -25 219 -56z
m1921 -24 c-109 -99 -281 -139 -474 -109 -65 10 -77 16 -140 68 -39 32 -62 57
-54 59 8 2 82 -9 164 -23 216 -36 328 -32 472 19 36 13 68 24 71 24 3 1 -15
-17 -39 -38z m-749 -27 c32 -25 57 -47 55 -48 -1 -1 -34 -5 -73 -9 l-70 -7
-49 43 -49 43 55 11 c30 7 59 12 64 13 6 0 36 -20 67 -46z m-213 -50 l43 -37
-45 -22 c-25 -12 -61 -31 -80 -43 l-35 -21 -26 44 c-14 25 -26 47 -26 50 0 8
102 66 116 66 6 0 30 -17 53 -37z m1026 -150 c0 -208 16 -310 76 -480 17 -47
29 -87 27 -89 -2 -2 -39 0 -81 4 l-78 7 -32 81 c-52 129 -135 243 -281 389
l-131 130 78 -3 c100 -4 205 18 295 63 49 26 127 77 127 85 0 0 0 -84 0 -187z
m-2717 158 c23 -5 45 -11 48 -13 2 -3 -2 -34 -11 -69 -45 -191 12 -398 148
-539 40 -41 96 -101 126 -132 l54 -57 -13 -115 c-13 -112 -9 -221 17 -486 l6
-65 -44 52 c-88 103 -213 194 -318 233 -31 12 -148 48 -261 81 -386 112 -522
207 -590 409 -19 55 -21 79 -17 155 3 50 15 119 27 155 24 74 105 244 123 258
10 8 197 55 502 126 69 16 141 19 203 7z m214 -83 c16 -12 16 -17 2 -68 -11
-38 -14 -83 -11 -145 7 -128 41 -214 118 -299 49 -53 59 -70 59 -100 0 -20 -4
-36 -9 -36 -5 0 -56 50 -113 110 -116 124 -149 187 -169 323 -11 75 -2 182 21
242 l10 26 37 -20 c21 -11 46 -25 55 -33z m1283 -43 l26 -45 -44 -58 c-110
-141 -151 -285 -124 -437 l14 -80 -26 -32 c-30 -38 -32 -36 -57 66 -13 57 -15
80 -7 100 6 14 24 55 39 91 25 58 29 78 29 175 1 80 6 118 17 140 14 27 95
125 103 125 2 0 15 -20 30 -45z m640 -24 c115 -93 272 -254 333 -343 49 -72
129 -225 121 -232 -2 -1 -38 -14 -79 -27 -41 -14 -82 -29 -91 -33 -13 -6 -18
4 -29 56 -36 184 -154 351 -390 551 -52 44 -99 85 -105 90 -6 5 24 7 75 5 l85
-3 80 -64z m-188 -71 c148 -125 254 -239 313 -337 44 -73 79 -175 80 -233 0
-42 -4 -50 -51 -95 -27 -28 -70 -80 -95 -117 -26 -40 -57 -74 -77 -84 -66 -33
-257 -151 -425 -261 l-173 -113 6 78 c12 132 -25 367 -89 573 l-14 46 45 64
c114 164 164 338 134 474 -5 24 -2 34 15 47 32 26 146 78 169 78 11 0 84 -54
162 -120z m-2782 -4 c-65 -134 -80 -198 -80 -336 l0 -125 42 -87 c53 -111 129
-188 243 -247 102 -53 178 -79 412 -141 102 -27 211 -59 242 -70 79 -30 196
-109 272 -185 69 -70 94 -114 94 -166 l0 -32 -78 75 c-161 154 -250 198 -595
297 -137 40 -288 87 -335 106 -199 81 -320 181 -390 325 -81 165 -78 326 10
537 l30 73 71 20 c40 12 77 23 82 24 16 5 16 5 -20 -68z m1156 18 c39 -69 59
-151 66 -279 l6 -110 -40 38 c-69 66 -112 252 -87 376 9 41 21 36 55 -25z
m1229 -117 c0 -35 -7 -89 -15 -121 -18 -67 -87 -205 -116 -232 -19 -17 -19
-16 -21 32 -3 99 5 151 33 224 31 81 94 174 109 165 6 -4 10 -34 10 -68z
m-260 -90 c-14 -92 -32 -131 -26 -57 5 59 24 135 32 127 3 -2 0 -34 -6 -70z
m-37 -373 l24 -81 -55 -94 c-59 -103 -153 -293 -242 -491 l-57 -127 -6 88 c-4
48 -13 120 -22 160 -8 40 -15 78 -15 84 0 18 144 278 207 376 61 94 136 187
140 174 2 -4 13 -45 26 -89z m-623 -126 c109 -117 135 -152 175 -232 l47 -94
-19 -42 -18 -42 -52 103 c-52 106 -87 151 -255 332 -76 81 -88 99 -88 129 0
70 6 66 210 -154z m2205 106 c16 -4 28 -27 55 -102 18 -53 35 -102 37 -108 2
-6 -28 0 -67 13 -39 13 -101 27 -137 30 l-65 6 6 30 c3 16 6 57 6 90 l0 60 72
-7 c39 -3 81 -9 93 -12z m-1365 -304 c19 -103 26 -212 22 -320 -2 -50 -5 -57
-36 -77 l-33 -21 -6 156 c-6 153 -32 318 -71 446 -15 48 -15 50 12 87 l27 38
33 -102 c18 -56 41 -149 52 -207z m1139 253 c-2 -99 -5 -103 -87 -124 -40 -10
-96 -31 -125 -46 -70 -38 -155 -126 -197 -206 -32 -60 -65 -96 -77 -83 -6 6
11 61 49 153 26 63 34 73 67 86 49 20 117 97 138 158 16 45 22 50 83 78 69 31
91 38 128 40 20 1 22 -3 21 -56z m447 -25 c13 -14 98 -268 91 -274 -2 -2 -32
16 -68 41 l-64 44 -37 113 c-21 62 -38 116 -38 120 0 10 100 -28 116 -44z
m363 -223 c116 -58 249 -103 345 -118 l80 -13 -32 -23 c-118 -84 -302 -82
-493 6 l-76 35 -37 127 c-20 71 -36 130 -36 133 0 3 37 -19 82 -49 45 -30 120
-74 167 -98z m-883 30 c-16 -21 -55 -49 -94 -69 -37 -19 -95 -50 -130 -70
l-63 -35 33 46 c45 63 128 123 207 150 36 12 67 20 70 18 2 -3 -8 -20 -23 -40z
m210 34 c32 -6 93 -24 135 -40 l75 -29 28 -117 c59 -252 71 -487 29 -597 l-18
-50 -71 -17 c-39 -10 -102 -32 -140 -50 l-69 -32 -372 -1 c-205 0 -372 1 -370
4 97 188 123 255 156 396 12 49 33 124 48 166 l26 77 167 85 c168 86 223 128
252 192 13 28 33 30 124 13z m-630 -111 c-3 -7 -20 -59 -37 -115 l-33 -103
-150 -97 c-83 -53 -225 -148 -314 -210 -90 -62 -165 -113 -167 -113 -2 0 8 26
23 58 14 31 38 97 52 146 l26 89 144 90 c162 102 440 265 453 266 5 1 6 -5 3
-11z m1078 -176 c35 -142 48 -243 53 -406 l6 -169 -29 7 c-16 3 -60 11 -97 17
-56 10 -67 14 -62 28 4 9 13 45 22 81 28 119 5 431 -42 580 -6 18 4 14 63 -25
70 -47 70 -47 86 -113z m775 89 c-210 -289 -324 -565 -345 -839 -4 -42 -10
-82 -13 -89 -4 -8 -30 14 -70 59 l-64 70 22 92 c54 223 173 433 345 611 44 46
66 75 63 87 -4 13 3 18 27 21 17 2 35 5 40 5 5 1 2 -7 -5 -17z m-3085 -142
c23 -122 29 -221 15 -254 l-12 -30 -8 55 c-13 87 -31 172 -45 213 -12 33 -11
42 3 72 9 20 20 32 25 27 5 -5 14 -42 22 -83z m2446 46 c87 -37 182 -56 276
-57 l81 -1 -63 -93 c-34 -51 -81 -130 -102 -176 -41 -85 -102 -264 -102 -296
0 -31 -10 -32 -59 -2 l-46 29 5 77 c8 112 -6 282 -33 422 -13 67 -22 122 -20
122 2 0 31 -11 63 -25z m-1237 -207 c-48 -191 -78 -279 -131 -380 -32 -64 -37
-68 -68 -68 -19 0 -34 2 -34 5 0 3 13 26 30 53 59 97 130 260 165 380 19 68
35 130 35 137 0 10 35 45 46 45 0 0 -19 -78 -43 -172z m-637 -88 c-28 -99 -65
-178 -92 -201 -16 -13 -17 -12 -10 11 26 90 56 216 56 234 0 22 62 71 68 54 2
-4 -8 -49 -22 -98z m1733 -326 c59 -17 59 -18 14 -109 -66 -135 -157 -171
-388 -154 -66 5 -160 11 -210 15 l-90 6 55 49 c105 94 124 103 219 110 91 6
166 35 205 78 16 17 31 21 81 21 34 0 85 -7 114 -16z m203 -175 c-8 -173 -94
-508 -181 -707 -99 -225 -214 -340 -351 -350 -76 -5 -120 14 -340 145 -233
139 -382 223 -537 303 l-122 63 97 47 c131 63 284 169 416 286 l109 97 176
-14 c97 -8 223 -14 281 -14 99 0 110 2 172 33 90 44 141 107 182 225 5 17 10
16 54 -16 l47 -34 -3 -64z m-1488 109 c-21 -36 -98 -129 -141 -169 -37 -36
-58 -48 -93 -53 l-45 -7 66 68 c36 37 83 89 103 115 30 38 45 48 74 51 20 2
38 4 40 5 2 1 0 -4 -4 -10z m705 -2 c8 -5 -18 -36 -76 -91 l-88 -84 -100 -1
c-97 0 -314 -12 -500 -26 l-90 -7 61 65 c33 36 76 87 95 113 l34 48 326 -5
c179 -3 331 -8 338 -12z m927 -186 c56 -69 56 -71 50 -119 -3 -27 -22 -113
-41 -192 -118 -483 -272 -766 -465 -858 -45 -21 -69 -26 -135 -26 -98 1 -113
7 -350 150 -298 179 -550 321 -742 418 -101 51 -183 94 -183 97 0 6 142 50
160 50 20 0 342 -188 602 -351 134 -84 268 -163 298 -176 66 -27 166 -31 230
-8 202 71 379 407 474 900 15 77 30 150 32 163 2 12 6 22 9 22 2 0 30 -32 61
-70z"/>
<path d="M14496 4015 c-9 -26 -7 -32 5 -12 6 10 9 21 6 23 -2 3 -7 -2 -11 -11z"/>
<path d="M14732 3950 c0 -14 2 -19 5 -12 2 6 2 18 0 25 -3 6 -5 1 -5 -13z"/>
<path d="M14692 3650 c0 -19 2 -27 5 -17 2 9 2 25 0 35 -3 9 -5 1 -5 -18z"/>
<path d="M15228 3643 c6 -2 18 -2 25 0 6 3 1 5 -13 5 -14 0 -19 -2 -12 -5z"/>
<path d="M14779 3563 c-13 -16 -12 -17 4 -4 16 13 21 21 13 21 -2 0 -10 -8
-17 -17z"/>
<path d="M14311 3524 c0 -11 3 -14 6 -6 3 7 2 16 -1 19 -3 4 -6 -2 -5 -13z"/>
<path d="M15013 3383 c9 -2 23 -2 30 0 6 3 -1 5 -18 5 -16 0 -22 -2 -12 -5z"/>
<path d="M14948 3373 c7 -3 16 -2 19 1 4 3 -2 6 -13 5 -11 0 -14 -3 -6 -6z"/>
<path d="M1381 3314 c-196 -31 -426 -124 -600 -244 -334 -229 -564 -602 -620
-1004 -14 -100 -14 -302 0 -402 89 -639 601 -1156 1237 -1249 159 -23 778 -17
892 10 275 63 514 184 695 353 100 93 96 66 93 635 l-3 494 -30 48 c-20 32
-45 56 -74 72 l-44 23 -624 0 c-692 0 -661 3 -725 -68 -90 -100 -65 -257 51
-319 l44 -23 499 0 498 0 0 -295 0 -294 -46 -35 c-60 -46 -222 -128 -304 -154
-138 -44 -172 -47 -510 -47 -276 0 -338 3 -409 18 -186 40 -363 134 -506 269
-147 139 -255 318 -307 508 -20 73 -23 109 -23 255 0 146 3 182 23 255 88 325
332 599 645 725 144 58 203 67 509 72 389 7 522 -11 705 -97 99 -46 157 -84
245 -162 87 -76 111 -88 181 -88 120 0 207 85 207 202 -1 88 -57 159 -226 285
-148 109 -357 202 -564 249 -107 24 -769 30 -909 8z"/>
<path d="M3740 3319 c-43 -18 -90 -59 -110 -99 -20 -39 -20 -61 -20 -1357 l0
-1318 23 -40 c52 -91 175 -132 264 -87 43 22 87 69 106 111 8 18 14 156 17
421 l5 395 164 128 c90 70 167 126 172 125 4 -2 341 -266 749 -588 407 -322
753 -590 768 -597 15 -7 50 -12 77 -12 165 -1 267 180 178 316 -9 13 -327 268
-707 567 -380 299 -702 552 -714 563 l-24 19 715 562 c393 309 721 572 730
585 88 135 -13 316 -176 317 -26 0 -62 -6 -80 -14 -18 -8 -441 -337 -942 -731
l-910 -717 -5 653 c-4 462 -8 662 -17 680 -18 42 -63 89 -104 109 -41 22 -117
26 -159 9z"/>
<path d="M6710 3319 c-44 -18 -90 -59 -110 -99 -20 -39 -20 -61 -20 -1357 l0
-1318 23 -40 c12 -21 42 -53 65 -70 l44 -30 951 0 952 0 80 23 c393 114 665
471 665 871 0 245 -86 453 -260 632 l-85 87 40 46 c150 169 214 411 171 640
-31 159 -94 274 -221 401 -97 98 -183 151 -320 197 l-70 23 -940 2 c-609 1
-949 -1 -965 -8z m1902 -436 c83 -39 141 -97 179 -176 25 -53 29 -74 29 -147
0 -69 -5 -95 -25 -138 -35 -75 -69 -116 -130 -156 -100 -67 -86 -66 -922 -66
l-753 0 0 360 0 361 778 -3 777 -3 67 -32z m-66 -1104 c226 -41 404 -252 404
-479 0 -227 -178 -438 -404 -479 -40 -7 -314 -11 -808 -11 l-748 0 0 490 0
490 748 0 c494 0 768 -4 808 -11z"/>
<path d="M9980 3319 c-43 -18 -90 -59 -110 -99 -20 -39 -20 -61 -20 -1357 l0
-1318 23 -40 c52 -91 175 -132 264 -86 53 27 98 82 112 137 8 30 11 430 11
1309 0 879 -3 1279 -11 1309 -13 54 -59 110 -110 136 -41 22 -117 26 -159 9z"/>
<path d="M10990 3319 c-43 -18 -90 -59 -110 -99 -20 -39 -20 -61 -20 -1357 l0
-1318 23 -40 c52 -91 175 -132 264 -87 43 22 87 69 106 111 9 19 13 320 17
1095 l5 1068 665 -1098 c366 -605 678 -1114 695 -1133 38 -43 81 -61 145 -61
52 0 99 18 136 51 11 11 324 520 695 1133 l674 1113 5 -1076 c6 -1203 -1
-1101 79 -1174 88 -80 225 -58 299 47 l27 39 0 1332 0 1332 -27 39 c-15 21
-44 50 -65 64 -34 24 -45 25 -194 28 -168 4 -193 -2 -247 -51 -12 -12 -327
-526 -700 -1144 -372 -618 -679 -1123 -682 -1123 -3 0 -308 502 -679 1115
-370 614 -683 1127 -694 1141 -40 52 -87 64 -247 63 -80 0 -156 -5 -170 -10z"/>
<path d="M15018 2963 c7 -3 16 -2 19 1 4 3 -2 6 -13 5 -11 0 -14 -3 -6 -6z"/>
</g>
</svg>
