<svg id="Layer_1" data-name="Layer 1" xmlns="http://www.w3.org/2000/svg" viewBox="0 0 1700.79 1700.79"><defs><style>.cls-1{fill:#ec2127;}.cls-2{fill:#ea6625;}</style></defs><path class="cls-1" d="M849.1,1067.68c26.61,11,56.63,13.81,85.17,11.76,58-4.26,111.79-31.64,156.32-67.94,2.73-2.36,9.75-8.2,12.39-10.48,4.64-4.2,11.35-10.38,15.89-14.69,8.73-8.71,17.94-18.15,26.15-27.42,22.17-23.81,51.76-42.76,83.51-50.64,46-11.39,88.12,7,119.85,40.31a251.7,251.7,0,0,1,24.35,29.67c17.78,25.46,31.79,53.29,43.82,81.73a58.18,58.18,0,0,0,2.71,10.08c8.23,22.21,27.43,38.27,48.6,48,24.8,11.16,52.3,15.14,79.38,16L1547,1140c-20.43-.21-40.65,4.88-59.77,11.84-38.73,14.39-73.13,39-102.13,68.15-22.23,21.69-40.29,47.62-59.11,72.22-46.91,59.23-111.07,119.62-185.65,139.61l-3.88.86-1.94.44c-2.93.55-6.9,1.23-9.84,1.55-9.28,1-19.41,1.29-28.1-2.76-18.84-9.13-33.17-33.06-44-50.35-26.6-44.83-49.33-91.84-75.52-136.88-36.57-63-80.33-121.85-127.88-177Zm0,0C897.63,1122,942,1180.61,979.38,1243.24c16,26.9,30.75,54.48,45.79,81.89,15.14,27.19,29.54,55,48.26,79.91,6.18,8,13.12,15.82,21.73,21,11.17,7,27.6,4.61,40.24,1.93,74-18.17,140.1-80.72,186-139.36,18.93-24.84,37.06-50.87,59.47-72.81,36.92-37.16,82.81-67.51,134.63-78.43,10.45-2.14,21.09-3.62,31.81-3.32a3,3,0,0,1-.24,5.9c-27.85-1-56-5.09-81.66-16.67-22.42-10.26-42.89-27.58-51.52-51.27a51.23,51.23,0,0,1-2.79-10.65c-9.75-22.35-24.07-53-39.74-75.6-11.9-17.77-25.87-34.52-42.44-48.13-42.09-34.94-92.33-36.17-139-9.1-15.42,9-30,19.82-42.14,32.94l-7.41,8c-6,6.67-12.75,13-19.13,19.39-4.64,4.27-11.39,10.51-16.13,14.67-2.78,2.29-9.73,8.11-12.57,10.46-4.19,3.22-8.75,6.75-13,9.93a324.9,324.9,0,0,1-61.12,35.61c-52.57,23.19-115.35,30.65-169.37,8.16Z"/><path class="cls-1" d="M852.23,1030.91c18.88-3.27,37.06-10.05,54.26-18.38,45.93-22.29,84.07-59.5,109-103.89,3.74-6.25,7.79-14.59,11-21.14,1.19-2.72,4.52-10.27,5.77-13.1,2.39-5.78,4.65-12,6.84-17.82,1-2.93,3.5-10.76,4.44-13.61.4-1.1,1.07-3.44,1.37-4.57,1.42-5.33,3.73-13.11,4.89-18.46,2.91-12.43,5.23-25.1,8.68-37.42,6.85-24.82,17.13-49.25,33.49-69.38,42.66-53.31,112.81-49.37,169.79-23.12a101.11,101.11,0,0,1,9.17,4.64,377.26,377.26,0,0,0,49.18,33.09c48.24,27.39,117.53,51.73,163.5,8l3.9,4.44c-3.94,3.32-7.85,7-11.6,10.73-39.31,39.49-69.32,88.68-84.79,142.29a300.94,300.94,0,0,0-11.29,70.9,777.37,777.37,0,0,1-19.59,90.88c-19.45,68.77-66.44,202.35-160.22,158.39l-5.24-2.71c-.43-.23-.88-.44-1.3-.69l-1.27-.75-2.52-1.51C1108.23,1156.28,1025.65,1106,938.25,1065c-27.81-12.88-56.75-25-86-34.08Zm0,0c18.36,5.47,36.89,11.93,54.61,19.21,53.55,21.78,105.24,48.85,155.77,76.88,26.51,14.87,54.08,31.1,80,46.8,14.35,8.57,35.08,21.69,49.31,30.33,3.14,2,6.78,3.77,10,5.4,30,14.34,58.74,9.47,82.78-13.45,45.13-43.84,67.81-126.95,81.19-187.41,3.17-14.54,6.19-31.54,8.26-45.06a308.12,308.12,0,0,1,11.94-74c17.61-58.86,51.75-113.21,97.75-154a3,3,0,0,1,3.92,4.42,103.8,103.8,0,0,1-12,9.67,90.17,90.17,0,0,1-28,12.62c-53.55,13.13-112.2-16.66-155.81-45.63-7.6-5.36-18.22-12.63-23.9-17.63-33.21-17.13-72.06-27.31-109.36-20.76-53.61,9.49-82.72,56.23-96.29,105.27-3.55,12.27-5.94,24.79-9,37.22-1.16,5.36-3.64,13.18-5.09,18.58-.64,2.57-2.12,6.61-3,9.17-2.3,7.29-5.47,15.58-8.3,22.61-2,5.09-5.52,12.62-7.77,17.63-1.49,2.78-5.08,10-6.61,12.85A286.68,286.68,0,0,1,1002,934.14c-3.25,4.63-8.31,10.74-11.88,15.15l-6.42,7.18c-34.59,37.51-80.88,65.67-131.47,74.44Z"/><path class="cls-1" d="M838.37,997c101-18.6,204-28.35,306.78-26,5.76.2,33.36,1.4,39.54,1.83,5.11.33,34.69,3.13,39.35,3.37.64,0,1.29.12,1.93.13l1.94,0a109.67,109.67,0,0,0,11.6-.32c2.55-.26,5.09-.63,7.62-1l3.74-.85,1.87-.43,1.81-.59,3.64-1.17a64.43,64.43,0,0,0,6.91-3.18l3.31-1.85,3.12-2.17c46.39-34.57,26.74-132.24,15.43-181.27-12-49.8-28.67-98.53-47.92-146-17.36-53.35-24.89-113.74-13.72-169.1a205.25,205.25,0,0,1,18.44-52.84,3,3,0,0,1,5.42,2.33c-.85,2.33-1.72,4.42-2.7,6.55a143.67,143.67,0,0,1-10.06,18.23c-32,49.15-83.34,69.6-140.66,63.31-4-.5-9.71-1.24-13.64-1.89-2.81-.64-13.87-2.65-16.77-3.28-26.24-5.3-53.7-6.21-79.66.74-34.64,8.87-64.64,32.81-81.83,64.07-12.82,23.19-20.44,50.46-16.81,77,2.86,17.71,8.85,35,13.79,52.29,5.16,17.4,9.91,35,13.47,52.85,1.33,6.38,2.56,13.75,3.47,20.19C931,858.07,902.21,933.15,838.37,997Zm0,0c87.31-90.85,96.3-184.75,58.91-301.09-7.57-26.07-18.57-52.71-14.6-80.42,4.81-38.89,26.14-75.58,58-98.52,20.67-14.86,45.64-23.11,70.91-25.25,22.83-2.06,45.91,1.57,68.17,6.2,3.66.87,9.49,1.46,13.27,2,1.85.34,4.75.51,6.67.67,24.3,2.22,49.4-.6,72-10.09,32.64-13.83,58.94-41.72,71.92-74.6l5.43,2.32a201.77,201.77,0,0,0-14.19,36.15,227.75,227.75,0,0,0-5.08,22.82c-7,41.25-3.63,83.71,5.41,124.39a317.35,317.35,0,0,0,10,35.66c11.29,27.47,21.3,55.51,30.18,83.84,18.51,60.26,55.55,192.8,5.13,242a14.21,14.21,0,0,1-1.51,1.39l-1.57,1.32a64.74,64.74,0,0,1-6.63,4.85c-1.3.73-4.11,2.28-5.39,3-1.85.77-3.81,1.65-5.66,2.39-1.35.46-4.53,1.43-5.83,1.86-.78.19-5,1.09-6,1.32-18.41,3.66-44.88-1.27-63.51-2.54-11.15-.58-36.51-2.36-47.26-2.34-100-2.59-200.22,6.1-298.78,22.67Z"/><path class="cls-1" d="M804.34,971.71c81.49-60.75,164.59-119.57,251.23-172.8,29.07-17.53,58.42-34.66,89.35-48.81l-.42.26a61.61,61.61,0,0,0,8.67-9.14c25.66-33.25,17.55-74.66-2.67-108.4l-3.34-5.56c-1.82-3-5.27-7.8-7.25-10.8a352.68,352.68,0,0,0-53.28-57.17c-39-32.48-107.38-89.26-146.92-122.43-32.56-41.39-60-92.64-68.18-145.07a202.1,202.1,0,0,1-2-23.2,3,3,0,0,1,5.89-.49,132.37,132.37,0,0,1-.14,29.91c-4.69,43.3-27.45,80.58-63.57,104.81-1.25.73-6.66,4.35-7.81,5s-3.67,2.08-4.85,2.73c-5,2.87-11.27,5.95-16.56,8.27-3.11,1.29-7.1,3.05-10.26,4.22-1.9.74-8.45,3-10.39,3.72C704.13,450.26,643.44,499.92,647,567.88c.42,19.52,8.52,42.62,15.94,58,25.11,26.62,82,87,106.41,112.93,14.39,17.93,23.8,39.36,31.12,61,18.08,55.43,16.84,115.56,3.84,171.94Zm0,0c13.72-64.28,12.57-133.68-15.07-194.17-6.07-12.92-12.94-25.77-22.13-36.72-24.41-25.45-82.23-85.9-107.25-112-11.41-21.89-18.52-46.89-17.55-71.85,2.7-64.31,59.17-110.07,114.1-134,5.14-2.22,11.94-4.25,17.11-6.46,1.65-.74,5-2.09,6.63-2.82,2.15-.76,7.56-3.66,9.74-4.66s4.22-2.26,6.32-3.42c1.79-1.12,4.51-2.42,6.2-3.63,38.06-23.38,62.1-60.06,66.95-104.62a127.05,127.05,0,0,0,.14-28.38l5.88-.51a186.88,186.88,0,0,0,2.94,28c9.07,49.11,35.18,97.56,65.86,136.62,37.4,31.08,107.68,90,146,122.1a357.89,357.89,0,0,1,53.9,58.27c1.36,2.15,5.94,8.6,7.38,11.08l3.42,5.72c21,35.48,28.81,79,1.72,113.66-3,3.62-6.06,7.26-9.92,10.08-15.39,6.89-30.41,14.65-45.26,22.72-103.54,57.7-200.86,126-297.09,195Z"/><path class="cls-1" d="M771.4,969.47C801.54,891,833.82,813.16,873,738.76c4.83-9,10.3-18.72,15.5-27.52,5.52-9.26,12.06-19.42,18.32-28.21,1.81-2.44,4.15-5.5,6-7.92s5.72-6.86,7.63-9.11C969.54,608.33,965,538.57,897,499.1c-16.76-9.94-35.17-16.83-53.87-22.2-40.37-11.27-80.87-22.52-122-30.58-8.2-1.47-16.49-3.13-24.76-3.46a134.28,134.28,0,0,1-22-.66c-50.31-5.42-97.47-27.65-138.58-56.39a466.29,466.29,0,0,1-65.89-57l4.32-4a131.66,131.66,0,0,1,14,20c19.83,33.83,25.41,74.64,9.32,111.11-7.14,16.79-18.08,31.83-30.54,44.91-2.82,4-8.11,11.72-11.44,17.18-22.25,36-45.83,84-43,127.1l.49,5.14.87,5.08a148.57,148.57,0,0,0,14.75,38.81c13.48,24.82,37.4,41.36,62.79,52.63,25.67,11.54,52.81,19.72,79.9,27.36,11.56,3.3,24.17,6.51,35.83,9.58,86.6,21.13,145.32,102,164.24,185.78Zm0,0c-6.53-27.49-17.72-53.79-31.8-78.24-30.23-52.65-78.48-92.72-138.36-105.76-29.15-7.37-58.38-15.06-86.74-25.08-21.75-7.87-43.44-17.06-61.79-31.43-17.2-13.22-29.77-31.83-37.27-52.06a124.91,124.91,0,0,1-7.32-26c-4.21-33.92,7.9-68.13,22.15-98.42a385.36,385.36,0,0,1,32.43-55.26,155.21,155.21,0,0,0,27.12-38.28,109.65,109.65,0,0,0,11.26-44.67c.89-31-11.6-61.84-31.29-85.53a3,3,0,0,1,4.35-4,472.1,472.1,0,0,0,46.32,42.1c32.53,25.86,69.17,47.3,108.9,59.9,20.92,6.47,42.89,11,64.81,10.48a61.47,61.47,0,0,1,12.3.83c46.84,7.56,92.43,21.1,138.06,33.79,19,5.53,37.94,12.7,55,22.92,70,41.08,75.36,114.28,23.82,173.74-1.74,2.13-6,6.92-7.62,8.95-2.22,3-5,6.28-7.09,9.34a453,453,0,0,0-25.21,39.75c-43.74,77.8-78.62,160.29-112,243Z"/><path class="cls-2" d="M897.42,1018.24c20.8-3.73,40.57-12.17,58.75-22.79,31.78-18.68,58-46.37,76.07-78.43,2.32-3.85,5.34-9.83,7.36-13.94l1.75-3.53,1.58-3.62c3.28-6.93,6.16-14.81,8.81-21.94.81-2.44,2.89-8.87,3.67-11.25.87-2.57,2.44-8.71,3.2-11.38,3.54-12.73,5.51-25.87,9.11-38.61,5.65-20.57,14.17-40.83,27.72-57.52,35.29-44.24,93.66-41.08,140.89-19.3a81.68,81.68,0,0,1,7.69,3.9,310.79,310.79,0,0,0,40.6,27.3c39.73,22.51,96.77,42.66,134.61,6.67l3.9,4.43c-3.22,2.73-6.45,5.78-9.55,8.85-32.43,32.59-57.21,73.19-70,117.43a248.88,248.88,0,0,0-9.34,58.57,642,642,0,0,1-16.23,75.2c-18.72,67.07-63.3,181.94-149.84,121.4-72.78-45.86-146.75-90.76-225.93-124.79a476.92,476.92,0,0,0-44.84-16.65Zm0,0c49.05,14.51,95.2,37.3,140.41,61,45,23.83,89.35,50.09,132.55,77,10.45,6.74,21.63,13.06,34,15.19,72.32,12.55,105.72-118.27,117.34-171.63,2.62-12.43,5-25,6.84-37.47a253.93,253.93,0,0,1,7.65-52.88c2.15-8.57,5-17.4,8-25.67a284.21,284.21,0,0,1,55.88-91.14,212.88,212.88,0,0,1,19.29-18.93,2.95,2.95,0,0,1,3.91,4.41,85.57,85.57,0,0,1-10,8.06c-47.54,31.4-110.66.69-152.59-27.33-6.19-4.38-15.36-10.67-19.72-14.57a167.25,167.25,0,0,0-28.74-11.89c-47.94-15.15-94.94-6.89-122.43,38.34-8.25,13.35-14,28-18.34,43.12-2.94,10.15-4.93,20.48-7.44,30.76a282.28,282.28,0,0,1-21.83,59.81,229.14,229.14,0,0,1-35.93,52.43c-28.66,31-67,54.26-108.85,61.44Z"/><path class="cls-2" d="M874.64,944.9C956,929.8,1039,921.61,1121.78,923c8.9,0,30.12,1.1,39.26,1.58l26.12,2.26c10.15,1.07,20.26,1.07,30-1.55,25.38-7,35.28-29.91,38.28-54.22,7.13-66.95-24.65-160-49.7-222.51-15.9-48.29-22.22-104.31-8.55-153.81a173,173,0,0,1,12.2-31,3,3,0,0,1,5.41,2.36,107.87,107.87,0,0,1-10.61,20.6c-25.51,39.51-67.73,57.4-113.94,52.8-8.9-.64-19.24-2.78-28-4.53-18.07-3.61-36.75-4.85-54.91-1.72-49,7.63-85.64,48-92.14,96.61-3.31,22.4,5.52,43.79,11.41,65.06,5.32,18,10.1,36.3,13.14,54.86,12.71,76.62-10.47,140.71-65.1,195.09Zm0,0c56.69-58.68,77.23-125.58,59.87-205.56-3-14.61-7.08-29-11.46-43.33-4.27-14.49-9.38-28.63-11.91-43.65-2.29-15.24,0-30.81,4.79-45.33,9.54-29,30.25-54.67,57.82-68.31,13.63-7,28.88-10.72,44.07-12.11,18.93-1.71,38,1.28,56.49,5.11,54.33,10.33,103.81-7.46,130.49-57.66a87,87,0,0,0,4.43-9.84l5.43,2.32C1187.4,519.86,1192.78,587,1210,642.79c.39,1,1.09,3.48,1.52,4.44,2.59,6.41,5.43,13.35,7.83,19.81,21.26,57,84.19,238.52-1,262.41-10.33,2.71-21.24,2.66-31.62,1.46-16.12-1.72-42.36-3.84-58.5-4.29-84.82-2.77-169.83,4.41-253.57,18.28Z"/><path class="cls-2" d="M812.53,912.67c67.28-50.28,136-99.12,207.62-143.09,10.94-6.74,22.83-13.62,34-20,2-1,18.63-10.08,20.87-11.25l19-9.23-.43.26c16-13.89,22.78-36.39,19.6-57.07-1.66-12.22-6.27-24.12-12.16-34.95l-1.24-2.36-1.38-2.3c-2.49-4.36-5.91-9.35-8.74-13.49a291.33,291.33,0,0,0-44-47.18c-32.2-26.72-88.57-73.67-121.22-100.92-30.65-38.56-57.08-89.82-58.54-139.79a3,3,0,0,1,5.88-.51c.3,2.22.43,4.22.54,6.32,1.32,30.91-9.31,62.37-30.14,85.4L837.94,427c-.9.82-4.8,4.55-5.63,5.3l-5.94,4.94c-2.33,1.66-5.12,3.85-7.5,5.41A155.1,155.1,0,0,1,802.94,452c-5.23,2.66-11.37,5.36-16.82,7.45-2.28.87-7.61,2.63-9.9,3.57a188,188,0,0,0-17.47,8.25C697,504.06,661.9,559.16,696.26,627c16.48,17.11,66.64,70.84,84,89.21a62.34,62.34,0,0,1,6.78,7.91c37,54.75,40,125.83,25.46,188.6Zm0,0c13.2-62.56,9.62-133.08-27.86-186.87a62.87,62.87,0,0,0-6.65-7.58c-18.34-19.21-66.82-69.43-85.57-89.38-25.1-49-17.11-97.05,23.79-134.26a202.07,202.07,0,0,1,56.49-36.1c3.06-1.34,8.18-3,11.39-4.24,12.79-5,25.37-11.46,36.33-19.77,30.5-22,47.8-59.71,46-97.1-.1-1.93-.25-3.95-.48-5.71l5.88-.51a159.35,159.35,0,0,0,1.65,18.48c6.79,42.54,28.77,83.65,55.12,117.33,32.53,27.12,91.37,76.2,124.75,104.51,21.37,19.83,41.68,42,54.68,68.39,8,16.69,12.77,35.59,9.61,54.13-2.51,14.82-10,29.5-21.85,39-31.32,14.37-62.49,32.48-91.77,50.46-65.47,40.4-129.07,84.27-191.47,129.21Z"/><path class="cls-2" d="M751.32,910.82c18.43-48.76,38.47-97,60.53-144.19,15-31.45,30.35-62.8,50.29-91.5,2.53-3.44,5.21-7.22,8-10.46,8.38-9.66,16.33-20.11,21.76-31.72,22.26-46.18,3.83-88.42-39.76-112.31C839,513.33,824.9,508.06,810.47,504c-25-7-50.18-13.91-75.49-19.81-14.65-3.26-29.39-6.85-44.32-8.23-19.87.79-39.54-2.92-58.4-8.8-50.33-16-94.29-48.07-130.64-85.69l4.32-4A109.66,109.66,0,0,1,517.57,394c17.51,29.9,21.33,65.44,5.63,96.95a132.63,132.63,0,0,1-23,32.39,305.18,305.18,0,0,0-18.49,29.37C467,579.43,453.05,611.58,455,642.56l.41,4.22.71,4.17a122,122,0,0,0,12.13,32C479.34,703.4,499,717,520,726.32c21.21,9.55,43.63,16.33,66,22.67,9.56,2.73,20,5.4,29.61,8,71.66,17.56,120.21,84.53,135.75,153.88Zm0,0a234.93,234.93,0,0,0-18.11-49.23C710.09,813.2,667.9,772.38,614.8,760c-9.7-2.49-20.14-5-29.76-7.67-33.73-9.63-69-18.59-97.49-40.1-14.28-11-24.73-26.41-31-43.2a103.82,103.82,0,0,1-6.09-21.59c-.27-2.75-.71-6.31-.7-9-.42-13.46,2.21-26.84,6-39.65,5.12-17,12.56-33.19,21.08-48.72A314.6,314.6,0,0,1,495.66,520,128,128,0,0,0,518,488.44C535.2,453.9,527.18,415,504.5,385c-1-1.26-2-2.56-3-3.66a3,3,0,0,1,4.35-4,383.48,383.48,0,0,0,48.52,42.6c6.64,5,14.33,10.08,21.36,14.5,33.17,20.19,72.35,36.19,111.68,35.77a50.69,50.69,0,0,1,10.25.69c13,1.87,25.81,4.81,38.58,7.79,17,4,33.77,8.5,50.54,13.13,16.81,4.81,33.84,8.9,50,15.75,54.85,22.34,86.54,69.61,58.82,127.21-5.72,11.92-13.89,22.5-22.61,32.33-2.74,3.19-5.48,6.76-7.94,10.15-29.7,42.7-51.37,90.48-73.08,137.64q-21.3,47.55-40.67,96Z"/><path class="cls-1" d="M735.93,983.13c-11.22-66.82-21.23-133.93-27.1-201.47-1.71-22.61-3.43-45.24-1.47-67.94,5-44.21,15.9-89.78,4.1-133.73-13.79-50.06-57.45-65-102.17-67.28-57.41,12.59-114.75,26.09-171.11,42.77-18.63,5.65-37.4,11.52-55.21,19.27a112.11,112.11,0,0,0-12.78,6.53,101.76,101.76,0,0,1-13.91,6.24C290.13,610.92,216.94,599,152.6,575.29a3,3,0,0,1-1.78-3.82c1.4-3.17,4.51-1.53,6.92-.8a132.71,132.71,0,0,1,62.41,45.08c25.14,33.59,28.9,76.15,21.5,116.36-4.22,21.33-7.44,43.55-5.69,65.26.28,2,.69,7.73,1,9.75.78,5.19,1.71,10.92,3,16.06,9.71,42.43,38.68,80.14,77.2,100.4,16.48,4.92,36.48,7.35,54.58,7.49A255.3,255.3,0,0,0,454,918.14c18-5.49,34.41-15.26,52.92-19.1,18.48-4.08,37.61-4.43,56.36-2.3,49.73,6.1,101.76,28.1,142.41,57.15a60.79,60.79,0,0,1,10.48,9.4c6.19,7,12.42,14.09,19.81,19.84Zm0,0c-7.48-5.64-13.83-12.65-20.14-19.55a59.4,59.4,0,0,0-10.53-9.16c-51.84-35.93-130.9-66.13-194.31-53.1-19.66,3.58-37,14.22-55.88,20.2-40.18,13.59-83.94,17.72-125.73,9.71a123.23,123.23,0,0,1-14.14-3.52A110.61,110.61,0,0,1,303.39,921a162.89,162.89,0,0,1-47.46-47.18c-14.83-22.6-23.21-49.13-25.28-76-1.86-22.25,1.28-44.82,5.52-66.61.76-3.64,1.45-9.23,1.88-13,5.33-44.47-5.23-87.86-40.23-117.84a129.51,129.51,0,0,0-38.9-23c-2-.75-4.11-1.45-6-2l1.77-5.64c63,23,134.79,35.1,199.57,12.31a96.26,96.26,0,0,0,12.95-5.76,113.74,113.74,0,0,1,13.43-6.84c18.19-7.89,37-13.77,55.93-19.43,56.62-16.54,114.06-29.85,171.7-42.27,67.57,2.64,110,34.41,112.28,105,.88,22.76-1.9,45.4-5.2,67.82-1.63,11.19-3.47,22.33-4.75,33.49a269,269,0,0,0-.89,33.63c3,78.95,14.76,157.34,26.24,235.43Z"/></svg>